<svg version="1.1" id="Layer_1" xmlns="http://www.w3.org/2000/svg" xmlns:xlink="http://www.w3.org/1999/xlink" x="0px" y="0px" viewBox="0 0 500 500" style="width: 157px;" xml:space="preserve" data-imageid="fitness-app-72" imageName="Fitness App" class="illustrations_image">
<style type="text/css">
	.st0_fitness-app-72{fill:#FFDDDC;}
	.st1_fitness-app-72{fill:#E75A59;}
	.st2_fitness-app-72{fill:#FFABC1;}
	.st3_fitness-app-72{fill:url(#SVGID_1_);}
	.st4_fitness-app-72{fill:url(#SVGID_00000156564558527993444490000010727957359304605881_);}
	.st5_fitness-app-72{fill:url(#SVGID_00000081635402152774862870000015170762616000976304_);}
	.st6_fitness-app-72{fill:#F2F2F2;}
	.st7_fitness-app-72{fill:#68E1FD;}
	.st8_fitness-app-72{opacity:0.1;fill:#111224;enable-background:new    ;}
	.st9_fitness-app-72{fill:#111224;}
	.st10_fitness-app-72{fill:#792155;}
	.st11_fitness-app-72{fill:#995F85;}
	.st12_fitness-app-72{fill:#ABDB3A;}
</style>
<g id="Posters_fitness-app-72">
	<polygon class="st0_fitness-app-72" points="179.3,156.1 179.3,196.3 233.6,164.6 233.6,126.8 &#9;"/>
	<path class="st1_fitness-app-72" d="M188.4,175.5c-0.4,0-0.8-0.1-1.1-0.2c-0.8-0.4-1.3-1.2-1.5-2.1c-0.6-3,2.3-4.9,2.5-5l12-7.1l0.5,0.9l-12,7&#10;&#9;&#9;c0,0-2.5,1.6-2,3.9c0.1,0.6,0.4,1.1,0.9,1.4c0.8,0.2,1.7,0.1,2.5-0.3c1.1-0.6,28.9-15.7,29.2-15.9l0.2-0.1l0.2,0.1&#10;&#9;&#9;c0,0,2.6,0.8,1.9,4.3c-0.6,3.3-8.2,7.2-9.1,7.6l-0.4-0.9c2.2-1.1,8.1-4.5,8.5-6.9c0.4-2.2-0.6-2.9-1-3.1&#10;&#9;&#9;c-2.8,1.5-27.9,15.2-29.1,15.8C190,175.2,189.2,175.4,188.4,175.5z"/>
	<path class="st1_fitness-app-72" d="M196.3,162.7L196.3,162.7c0,1.7,1.3,3,2.9,3.1c0.5,0,1.1-0.1,1.5-0.4l12.4-7c0.9-0.5,1.5-1.5,1.5-2.6l0,0&#10;&#9;&#9;c0-1.7-1.4-3-3.1-2.9c-0.5,0-1,0.1-1.4,0.4l-12.4,7C196.9,160.7,196.3,161.6,196.3,162.7z"/>
	<path class="st1_fitness-app-72" d="M196.3,176.3L196.3,176.3c0,1.7,1.3,3,2.9,3.1c0,0,0,0,0,0c0.5,0,1.1-0.1,1.5-0.4l12.4-7&#10;&#9;&#9;c0.9-0.5,1.5-1.5,1.5-2.6l0,0c-0.1-1.7-1.4-3-3.1-3c-0.5,0-1,0.1-1.4,0.4l-12.4,7C196.9,174.3,196.3,175.3,196.3,176.3z"/>
	<polygon class="st0_fitness-app-72" points="100.2,200.4 100.2,240.6 154.5,208.9 154.5,171 &#9;"/>
	<polygon class="st0_fitness-app-72" points="129.2,125.9 129.2,171.9 191.5,135.6 191.5,92.2 &#9;"/>
	<path class="st1_fitness-app-72" d="M145,131.1L145,131.1c2.9-1.5,6.4-0.4,8,2.5c0,0,0,0.1,0,0.1c0.4,0.8,0.6,1.8,0.6,2.7v5.8&#10;&#9;&#9;c0,2.3-1.3,4.4-3.4,5.4l0,0c-3,1.4-6.5,0.1-7.9-2.8c-0.4-0.8-0.6-1.7-0.6-2.6v-5.8C141.7,134.1,143,132.1,145,131.1z"/>
	<polygon class="st1_fitness-app-72" points="152.1,141.7 171.1,131.2 171.1,125.2 152.1,135.8 &#9;"/>
	<path class="st1_fitness-app-72" d="M171.6,118.9L171.6,118.9c2.9-1.5,6.5-0.4,8,2.5c0,0,0,0.1,0,0.1c0.5,0.8,0.7,1.8,0.7,2.7v5.7&#10;&#9;&#9;c0,2.3-1.3,4.4-3.4,5.4l0,0c-2.9,1.4-6.5,0.1-7.9-2.8c-0.4-0.8-0.6-1.7-0.6-2.6v-5.8C168.5,122,169.7,119.9,171.6,118.9z"/>
	<polygon class="st1_fitness-app-72" points="120,215.2 135.8,206.5 135.8,201.4 120,210.4 &#9;"/>
	<path class="st1_fitness-app-72" d="M137.6,192.2L137.6,192.2c2.3,0,4.1,1.9,4.1,4.1v11.3c0,2.3-1.9,4.1-4.1,4.1l0,0c-2.3,0-4.1-1.9-4.1-4.1v-11.3&#10;&#9;&#9;C133.5,194,135.3,192.2,137.6,192.2z"/>
	<path class="st1_fitness-app-72" d="M118.7,202.9L118.7,202.9c2.3,0,4.1,1.9,4.1,4.1v11.3c0,2.3-1.9,4.1-4.1,4.1l0,0c-2.3,0-4.1-1.9-4.1-4.1V207&#10;&#9;&#9;C114.6,204.7,116.4,202.9,118.7,202.9z"/>
	<path class="st1_fitness-app-72" d="M113.7,210.7L113.7,210.7c1.5,0,2.8,1.3,2.8,2.8v3.5c0,1.5-1.3,2.8-2.8,2.8l0,0c-1.5,0-2.8-1.3-2.8-2.8v-3.5&#10;&#9;&#9;C110.9,212,112.1,210.7,113.7,210.7C113.7,210.7,113.7,210.7,113.7,210.7z"/>
	<path class="st1_fitness-app-72" d="M142.8,196.9L142.8,196.9c1.5,0,2.8,1.3,2.8,2.8v3.5c0,1.5-1.3,2.8-2.8,2.8l0,0c-1.5,0-2.8-1.3-2.8-2.8v-3.5&#10;&#9;&#9;C140,198.2,141.2,196.9,142.8,196.9z"/>
</g>
<path id="Base_fitness-app-72" class="st2_fitness-app-72" d="M29.4,312.2l173.8,100.3c8.8,5,19.7,5,28.5,0l240.3-138.7c5.5-3.2,7.4-10.3,4.2-15.8&#10;&#9;c-1-1.7-2.4-3.2-4.2-4.2L293.7,150.2c-4.6-2.7-10.4-2.7-15,0L29.4,294.1c-5,2.9-6.6,9.2-3.8,14.2c0,0,0,0,0,0&#10;&#9;C26.6,309.9,27.9,311.2,29.4,312.2z"/>
<g id="shadow_fitness-app-72">
	
		<linearGradient id="SVGID_1_-fitness-app-72" gradientUnits="userSpaceOnUse" x1="350.0972" y1="-591.3864" x2="417.0872" y2="-539.6863" gradientTransform="matrix(1 0 0 -1 0 -276)">
		<stop offset="0" style="stop-color:#FFABC1"/>
		<stop offset="0.99" style="stop-color:#E57EBC"/>
	</linearGradient>
	<polygon class="st3_fitness-app-72" points="367.5,264.8 318.2,295 374.7,329.9 432.2,296.9 &#9;"/>
	
		<linearGradient id="SVGID_00000150791705821147650710000018178291498115097508_-fitness-app-72" gradientUnits="userSpaceOnUse" x1="320.9771" y1="-611.3963" x2="375.0971" y2="-569.6163" gradientTransform="matrix(1 0 0 -1 0 -276)">
		<stop offset="0" style="stop-color:#FFABC1"/>
		<stop offset="0.99" style="stop-color:#E57EBC"/>
	</linearGradient>
	<polygon style="fill:url(#SVGID_00000150791705821147650710000018178291498115097508_);" points="349.2,294.7 299.9,325 &#10;&#9;&#9;333.4,344.6 382.7,314.4 &#9;"/>
	
		<linearGradient id="SVGID_00000084502869621954325880000016138340448274409634_-fitness-app-72" gradientUnits="userSpaceOnUse" x1="124.8019" y1="-636.8211" x2="152.8519" y2="-588.9711" gradientTransform="matrix(1 0 0 -1 0 -276)">
		<stop offset="0" style="stop-color:#FFABC1"/>
		<stop offset="0.99" style="stop-color:#E57EBC"/>
	</linearGradient>
	<polygon style="fill:url(#SVGID_00000084502869621954325880000016138340448274409634_);" points="110.1,300 60.9,330.3 &#10;&#9;&#9;158.1,387.1 208.4,357.8 &#9;"/>
</g>
<g id="Smartphone_fitness-app-72">
	<path class="st1_fitness-app-72" d="M99.1,304.5v-8.9l4.3,4.4C103.4,299.9,103.6,304.5,99.1,304.5z"/>
	<path class="st1_fitness-app-72" d="M102.5,298.5L266,204.6c3.5-2.1,8-2.1,11.5,0l87.3,51.1c3.2,1.9,4.3,5.9,2.5,9.2c-0.6,1-1.4,1.9-2.5,2.5&#10;&#9;&#9;l-161.9,93.6c-4.7,2.7-10.6,2.7-15.3-0.1l-85.3-50.7c-3.2-1.9-4.2-6.1-2.3-9.3C100.6,299.8,101.5,299,102.5,298.5z"/>
	<path class="st0_fitness-app-72" d="M102.5,291.1L266,197.2c3.5-2.1,8-2.1,11.5,0l87.3,51.1c3.2,1.9,4.3,5.9,2.5,9.2c-0.6,1-1.4,1.9-2.5,2.5&#10;&#9;&#9;l-161.9,93.6c-4.7,2.7-10.6,2.7-15.3-0.1l-85.3-50.7c-3.2-1.8-4.3-5.9-2.4-9.1C100.5,292.5,101.4,291.6,102.5,291.1L102.5,291.1z"/>
	<path class="st6_fitness-app-72" d="M262,209c0.9,0.4,83.5,48.5,83.5,48.5l-137.9,80.8l-83.4-48.1L262,209z"/>
	<path class="st1_fitness-app-72" d="M172,330.6c1-0.6,1.4-1.9,0.8-2.9c0,0,0,0,0,0c0-0.1-0.1-0.1-0.1-0.2c-1.2-1.2-2.5-2.2-4-3.1&#10;&#9;&#9;c-1.4-0.9-2.9-1.7-4.3-2.5l-11.2-6.5l-9.2-5.3c-1.2-0.7-2.7-0.9-4-0.5c-0.9,0.3-1.8,1-2.4,1.8c-0.6,0.9-0.3,2.1,0.6,2.7&#10;&#9;&#9;c0,0,0,0,0.1,0c0.1,0,0.1,0.1,0.2,0.1l16.8,9.8l7.3,4.2l4.2,2.5c1.3,0.8,2.8,1,4.2,0.5C171.3,331,171.6,330.9,172,330.6z"/>
	<ellipse class="st1_fitness-app-72" cx="130.4" cy="305.5" rx="2.9" ry="2.5"/>
</g>
<g id="Treadmill_fitness-app-72">
	<polygon class="st7_fitness-app-72 targetColor" points="274.4,203 160,276.5 160,290.7 209.2,318.9 326.9,248.9 326.9,234.8 &#9;" style="fill: rgb(255, 122, 0);"/>
	<polygon class="st8_fitness-app-72" points="326.9,234.9 274.4,203.1 160,276.6 209.3,304.5 &#9;"/>
	<polyline class="st9_fitness-app-72" points="320.3,231 285.5,210.1 180.6,272.9 214.2,293.3 &#9;"/>
</g>
<g id="Character_fitness-app-72">
	<path class="st1_fitness-app-72" d="M233.6,168.3c-0.1-0.3-0.5-0.5-0.8-0.5c0.2,0.7,0,1.5-0.5,2c-0.8,0.9-1.9,1.7-3.1,2.1&#10;&#9;&#9;c-0.5,0.4-1.1,0.8-1.6,1.2c-0.3,0.3-0.8,0.3-1.2,0.2c-0.4,0.6-0.9,1-1.5,1.4c-0.9,0.4-1.7,1-2.5,1.8c-0.6,0.5-2,1.6-1.6,2.4&#10;&#9;&#9;s1.4,0.5,2.5,0l-0.2,0.4c-0.8,0.9-1.2,2.6,0.6,2.7c-0.3,0.6-0.2,1.3,0.2,1.8c0.9,0.8,1.8,0,2.2-0.5c0.4,0.3,0.9,0.5,1.4,0.4&#10;&#9;&#9;c0.4-0.1,0.8-0.3,1-0.7c3.3,1.6,4.6-6.6,4.8-9.8C233.8,171.6,234.2,169.7,233.6,168.3z"/>
	<path class="st9_fitness-app-72" d="M227.2,179.6c0-0.4-0.2-0.7-0.5-0.9c0.9-0.1,1.7-0.6,2.2-1.3c0.7-0.9,0.8-2.1,0.4-3.2c0-0.1-0.2-0.2-0.3-0.2&#10;&#9;&#9;c0,0-0.1,0-0.1,0c-0.1,0.1-0.2,0.2-0.1,0.4c0.4,1,0.2,2.1-0.5,2.9c-0.7,0.7-1.6,1.1-2.6,1.1h-0.1v-0.2c-0.5-1.3-1.9-0.4-2.4,0.4&#10;&#9;&#9;c-0.2,0.2,0.2,0.6,0.5,0.4s0.6-0.8,1.1-0.8c0.8,0,0.1,1.4,0,1.6c-0.3,0.7-0.7,1.4-1.2,2c-0.2,0.2,0.2,0.6,0.5,0.4&#10;&#9;&#9;c0.5-0.7,0.9-1.4,1.3-2.1c0.2-0.3,0.4-0.6,0.5-1c2.1,0.1,0.7,2.8,0.2,4c0,0.1,0,0.3,0.2,0.3c0.1,0,0.2,0,0.3-0.1&#10;&#9;&#9;c0.4-1,0.7-2,0.9-3.1l0,0c0.7-0.1,1.6,0,1.5,0.9c-0.1,0.6-0.2,1.1-0.5,1.6c-0.1,0.1,0,0.3,0.1,0.3c0.1,0.1,0.3,0,0.3-0.1&#10;&#9;&#9;c0.2-0.8,0.8-1.9,0.5-2.7S227.9,179.5,227.2,179.6z"/>
	<path class="st10_fitness-app-72" d="M233.8,154.1c-1.4,7.2-3.8,13.6-8.2,19.3c0.2,0.7,2,4.1,10.3,4.1l7.5-10L233.8,154.1z"/>
	<path class="st11_fitness-app-72" d="M236,172.4c-0.9-0.9-6.3-23.4-2.8-28.3s19.9,3.3,22.3,6.8s-1.6,19.1-2,21.5S242.6,179,236,172.4z"/>
	<path class="st1_fitness-app-72" d="M282.7,199.7l11.8,1.6c0,0,2.6-0.2,3-3.6s-1.6-3.4-1.6-3.4L285,191"/>
	<path class="st12_fitness-app-72" d="M295.5,191.7c-0.8,0-1.9,1.5-2,1.8s1.5,0.4,1.5,0.4c2.1,1.9,1.6,4.9,1.2,5.3s-2.6-1.6-3.2-1.1&#10;&#9;&#9;c-0.7,1.1-1.1,2.4-1.2,3.8c0.1,0.4,2.8,0,3,0.2c1.8,1.3,3,4,3.6,6s0.9,3.6,2.7,4.8c1,0.8,2.2,1,3.4,0.6c1.2-0.6,1.6-2.2,1.9-3.5&#10;&#9;&#9;c0.4-3.1-0.7-6.2-1.6-9.2c-0.8-2.6-1.9-5.1-3.3-7.5C301.2,192.8,296.4,191.7,295.5,191.7z"/>
	<path class="st1_fitness-app-72" d="M234.6,242v11.1c0.6,1.9,2.4,3.2,4.4,3.1c1.9,0.1,3.5-1.3,3.8-3.2l0.9-10.3"/>
	<path class="st12_fitness-app-72" d="M245,252.4c-0.2-0.9-1.9-1.8-2.2-1.9s-0.1,1.6-0.1,1.6c-1.6,2.7-5,2.7-5.5,2.2s1.4-3,0.6-3.6&#10;&#9;&#9;c-1.3-0.6-2.8-0.8-4.2-0.6c-0.5,0.2,0.5,3.1,0.4,3.3c-1.1,2.1-3.8,4-5.9,5s-3.8,1.6-4.8,3.8c-0.7,1.2-0.7,2.6,0,3.8&#10;&#9;&#9;c0.8,1.2,2.8,1.4,4.1,1.4c3.4-0.1,6.7-1.8,9.6-3.4c2.7-1.4,5.2-3,7.5-4.8C244.9,258.8,245.3,253.2,245,252.4z"/>
	<path class="st10_fitness-app-72" d="M236,172.4c0,0-10.6,12.9-5.8,24.8c4.3,10.8,34.9,10.1,53.9,7.1c0,0,8-5.1,3.4-13.3c0,0-24.3-3.5-28.1-3.8"/>
	<path class="st11_fitness-app-72" d="M238.2,174.2c0,0-11.5,28.9-11.5,35.6s5.3,35.6,5.3,35.6s6.3,4,14.9,0c0,0-1-32.2,0.2-36.8&#10;&#9;&#9;s13.4-27.2,6.5-36.2L238.2,174.2z"/>
	<path class="st6_fitness-app-72" d="M248.4,175.6h-0.1c-0.9,5.5-2.3,11-4,16.3c-2,6-5.2,11.9-6.1,18.1s-0.7,12.7-0.6,18.9c0.1,6,0.2,12.1,0.6,18.1&#10;&#9;&#9;h0.8c-0.4-6.1-0.5-12.1-0.6-18.2c-0.1-6.7-0.6-13.6,0.8-20.2c1.3-6.2,4.5-12.1,6.3-18.1c1.5-5,2.7-10,3.5-15.1&#10;&#9;&#9;C248.9,175.4,248.7,175.5,248.4,175.6z"/>
	<path class="st1_fitness-app-72" d="M238.8,136.9c-0.1,0.6-0.5,10.3,4.2,12s10.3-8.5,8-13.1S240.1,130.2,238.8,136.9z"/>
	<path class="st9_fitness-app-72" d="M247.3,138.5c0.8,1.1,0.8,3.8,0.5,5.1c-0.1,0.6-0.1,1.2,0,1.8c0,0.5-0.1,1.1-0.1,1.5c0.5-0.4,0.9-0.7,1.3-1.2&#10;&#9;&#9;c0.2,0.1,0.4,0.1,0.6,0c0.2-0.1,0.3-0.2,0.5-0.4c0.4-0.3,0.8-0.5,1.3-0.7c0.8-0.6,1.4-1.4,1.6-2.4c0.4-1,0.6-2.1,0.7-3.2&#10;&#9;&#9;c0.2-2.1-0.2-4.3-1.2-6.2c-2.6-4.9-9.2-5.1-13.1-1.8c0.2-0.5,0.7-1.8-0.7-1.4c-1.6,0.4-3.1,3.8-3.1,3.8c-0.2-0.6,0.6-2.2,0.6-2.2&#10;&#9;&#9;s-2,0.4-1.6,3.5s4.2,5.2,5.4,2.5s1.6-2.5,1.6-2.5c-1.3,2.4-0.1,4,2.7,4.5C245.3,139.8,246.6,139.5,247.3,138.5z"/>
	<path class="st1_fitness-app-72" d="M249.5,141.3c-0.4-0.8-1.3-1.1-2.1-0.7c-0.1,0.1-0.2,0.1-0.4,0.2c-0.6,0.6-1,1.3-1.2,2.1&#10;&#9;&#9;c-0.1,0.2-0.1,0.4,0,0.6c-0.2,0.4-0.2,0.9,0,1.3c0.4,0.5,1.1,0.7,1.6,0.5C248.8,144.6,250.4,142.8,249.5,141.3z"/>
	<circle class="st12_fitness-app-72" cx="248.3" cy="142.8" r="3.2"/>
	<path class="st12_fitness-app-72" d="M241.1,130.2c0,0,7.9,1.6,6.9,11l2.5-0.7c0,0,1.8-8-6.9-11.4C242.6,129,241.6,129.4,241.1,130.2z"/>
	<path class="st9_fitness-app-72" d="M251.5,131.8c0,0,0.7-6.7,6-6.6c5.3,0.1,5,4.5,8.7,4.5s6.6-7.3,10.8-5.2s7.4,16-3,16.7s-12.1-8.7-14.8-7.4&#10;&#9;&#9;s-3.8,5.9-7.3,6.1"/>
	<path class="st1_fitness-app-72" d="M264.8,171.5c0.1-0.4-0.1-0.8-0.5-0.9c0.6-0.8-0.6-2.1-1.4-1.3l-0.8,0.8c-0.1-0.5-0.6-0.8-1-0.7&#10;&#9;&#9;c-0.1,0-0.1,0-0.2,0.1c-0.3-0.1-0.7-0.1-0.9,0.1l-2,1.8l0,0c-0.9,0.6-2,0.8-3.1,0.8c-0.9,0-1.9,0-2.8,0.1c-0.7,0.1-2.3,0.2-2.3,1.1&#10;&#9;&#9;s0.9,1.1,1.9,1.3l-0.4,0.1c-1.1,0.4-2.2,1.3-1.4,2.5c-0.5,0.2-0.7,0.8-0.5,1.3c0.4,1.2,1.3,1.2,2.2,0.9c0.2,0.5,0.4,0.9,0.9,1.1&#10;&#9;&#9;c0.6,0.1,1.2,0,1.6-0.4c1.8,2.5,6.3-2.7,8.1-4.9C263.2,174.1,264.5,172.9,264.8,171.5z"/>
	<path class="st11_fitness-app-72" d="M270.8,163c-0.9-5.6-5.2-9-10-11.4c-2.5-1.2-5-2.1-7.6-3.2c-1.4-0.6-2.8-1.3-4.2-1.9&#10;&#9;&#9;c-0.2-0.1-2.5-0.8-2.5-1.2l2.7,12.2c2.1,0.9,2,1.9,4.1,2.9c1.8,0.9,5.6,1.8,6.1,4c0.1,0.4,0.1,0.9,0.1,1.3l0,0&#10;&#9;&#9;c-0.5,2-1.7,3.7-3.5,4.8c1.6,2.5,3.5,4.8,5.6,6.9C261.4,177.6,272.2,171.4,270.8,163z"/>
</g>
<g id="Balls_fitness-app-72">
	<circle class="st7_fitness-app-72 targetColor" cx="399.7" cy="249.6" r="35.9" style="fill: rgb(255, 122, 0);"/>
	<path class="st8_fitness-app-72" d="M421.6,221.1c1.3,2.9,2.2,6,2.7,9.2c3.3,19.6-10,39.5-29.2,44.5c-6.7,1.6-13.6,1.9-20.3,0.7&#10;&#9;&#9;c14.9,13.2,37.6,11.8,50.8-3c12.4-14,12-35.2-0.9-48.8C423.7,222.8,422.6,221.9,421.6,221.1z"/>
	<circle class="st7_fitness-app-72 targetColor" cx="425.6" cy="283.1" r="20.4" style="fill: rgb(255, 122, 0);"/>
	<path class="st8_fitness-app-72" d="M438,266.9c0.7,1.6,1.2,3.4,1.5,5.2c1.6,11.4-5.5,22.2-16.5,25.2c-3.8,0.9-7.7,1.1-11.5,0.4&#10;&#9;&#9;c8.2,7.7,21.1,7.2,28.8-1c7.4-8,7.2-20.5-0.5-28.2C439.2,267.8,438.7,267.3,438,266.9L438,266.9z"/>
</g>
<g id="Dumbble_fitness-app-72">
	
		<ellipse transform="matrix(0.3896 -0.921 0.921 0.3896 -48.8405 502.2293)" class="st10_fitness-app-72" cx="354.5" cy="288" rx="12.7" ry="10.3"/>
	<polyline class="st10_fitness-app-72" points="361,277.2 366.1,281 353.2,302.5 348.2,298.8 &#9;"/>
	
		<ellipse transform="matrix(0.3896 -0.921 0.921 0.3896 -49.1247 508.7288)" class="st11_fitness-app-72" cx="359.2" cy="291.4" rx="12.7" ry="10.3"/>
	<ellipse transform="matrix(0.3896 -0.921 0.921 0.3896 -48.8761 510.0874)" class="st10_fitness-app-72" cx="360.4" cy="291.9" rx="7" ry="5.8"/>
	<path class="st11_fitness-app-72" d="M388.6,304.1c-2-0.7-3.9-2.3-5.5-3.5c-3.3-2.1-6.6-4.3-9.9-6.6l-4.6-3c-1.1-1-2.3-1.8-3.5-2.5&#10;&#9;&#9;c-2.6-1-5.5,1.8-6,4.1c-0.5,1.7-0.2,3.6,0.8,5c1,1.4,2.9,2,4.2,3.1l4.7,3.2l9,6.1l2.2,1.5"/>
	
		<ellipse transform="matrix(0.3896 -0.921 0.921 0.3896 -48.7509 527.6418)" class="st10_fitness-app-72" cx="373.7" cy="300.6" rx="12.7" ry="10.3"/>
	<polyline class="st10_fitness-app-72" points="380.1,289.6 385.3,293.4 372.5,315 367.3,311.4 &#9;"/>
	<ellipse transform="matrix(0.3896 -0.921 0.921 0.3896 -48.8909 534.132)" class="st11_fitness-app-72" cx="378.5" cy="304" rx="12.7" ry="10.3"/>
	<ellipse transform="matrix(0.3896 -0.921 0.921 0.3896 -48.6517 535.4733)" class="st10_fitness-app-72" cx="379.6" cy="304.4" rx="7" ry="5.8"/>
</g>
<g id="Treadmill_2_fitness-app-72">
	<path class="st6_fitness-app-72" d="M186.2,210.5l27.6-14.1c0,0,4.7-0.7,5.9,2.6l-19.3,10.9l-1.9,6.5"/>
	<path class="st6_fitness-app-72" d="M231.5,305.6l21.1-67.4l17.5-9.9c0,0,0.8-2.8-4.2-3.2l-23.6,13l-61.5-33c0,0-4-1.8-6.5,2.7l17.9,10.3l-16.2,48&#10;&#9;&#9;l8.6-5.5l13.5-39.5l43.7,22.6l3.9-2.1c0,0-21.1,67.6-21.1,68.1S228.2,307.7,231.5,305.6z"/>
</g>
</svg>