<svg id="_0379_fitness_1" xmlns="http://www.w3.org/2000/svg" xmlns:xlink="http://www.w3.org/1999/xlink" viewBox="0 0 500 500" data-imageid="fitness-1-94" imageName="Fitness 1" class="illustrations_image" style="width: 157px;"><defs><style>.cls-1_fitness-1-94{fill:url(#linear-gradient);}.cls-1_fitness-1-94,.cls-2_fitness-1-94,.cls-3_fitness-1-94,.cls-4_fitness-1-94,.cls-5_fitness-1-94,.cls-6_fitness-1-94,.cls-7_fitness-1-94,.cls-8_fitness-1-94,.cls-9_fitness-1-94,.cls-10_fitness-1-94,.cls-11_fitness-1-94,.cls-12_fitness-1-94,.cls-13_fitness-1-94,.cls-14_fitness-1-94,.cls-15_fitness-1-94,.cls-16_fitness-1-94,.cls-17_fitness-1-94,.cls-18_fitness-1-94,.cls-19_fitness-1-94{stroke-width:0px;}.cls-2_fitness-1-94{isolation:isolate;opacity:.17;}.cls-2_fitness-1-94,.cls-19_fitness-1-94{fill:#68e1fd;}.cls-3_fitness-1-94{fill:url(#linear-gradient-4-fitness-1-94);}.cls-4_fitness-1-94{fill:url(#linear-gradient-2-fitness-1-94);}.cls-5_fitness-1-94{fill:url(#linear-gradient-3-fitness-1-94);}.cls-6_fitness-1-94{fill:url(#linear-gradient-7-fitness-1-94);}.cls-7_fitness-1-94{fill:url(#linear-gradient-5-fitness-1-94);}.cls-8_fitness-1-94{fill:url(#linear-gradient-6-fitness-1-94);}.cls-9_fitness-1-94{fill:#797b7d;}.cls-10_fitness-1-94{fill:#6d6e70;}.cls-11_fitness-1-94{fill:#949699;}.cls-12_fitness-1-94{fill:#0c040d;}.cls-13_fitness-1-94{fill:#231f20;}.cls-14_fitness-1-94{fill:#e09d80;}.cls-15_fitness-1-94{fill:#fff;}.cls-16_fitness-1-94{fill:#e4dcd1;}.cls-17_fitness-1-94{fill:#e3ad83;}.cls-18_fitness-1-94{fill:#ffb4a3;}</style><linearGradient id="linear-gradient-fitness-1-94" x1="806.13" y1="2065.05" x2="871.98" y2="1969.43" gradientTransform="translate(-531.68 2306.07) scale(1 -1)" gradientUnits="userSpaceOnUse"><stop offset="0" stop-color="#000"/><stop offset=".13" stop-color="#000" stop-opacity=".69"/><stop offset="1" stop-color="#000" stop-opacity="0"/></linearGradient><linearGradient id="linear-gradient-2-fitness-1-94" x1="637.54" y1="2056.17" x2="711.77" y2="2064.98" gradientTransform="translate(-471 2323.65) scale(1 -1)" xlink:href="#linear-gradient-fitness-1-94"/><linearGradient id="linear-gradient-3-fitness-1-94" x1="778.14" y1="1874.69" x2="777.5" y2="2011.21" xlink:href="#linear-gradient-fitness-1-94"/><linearGradient id="linear-gradient-4-fitness-1-94" x1="793.68" y1="1951.51" x2="787.6" y2="1873.51" xlink:href="#linear-gradient-fitness-1-94"/><linearGradient id="linear-gradient-5-fitness-1-94" x1="756.33" y1="1951.71" x2="767.66" y2="1910.61" xlink:href="#linear-gradient-fitness-1-94"/><linearGradient id="linear-gradient-6-fitness-1-94" x1="789.96" y1="2099.94" x2="854.54" y2="1977.48" xlink:href="#linear-gradient-fitness-1-94"/><linearGradient id="linear-gradient-7-fitness-1-94" x1="866.33" y1="2155.36" x2="786.27" y2="2155.36" xlink:href="#linear-gradient-fitness-1-94"/></defs><path id="background_fitness-1-94" class="cls-2_fitness-1-94 targetColor" d="M85.95,337.35c4.31-19.55,16.94-37.91,14.34-57.76-1.74-13.36-10.16-24.73-15.83-36.96-15.59-33.73-9.68-73.98,5.21-108.03,4.81-11.04,10.58-21.78,18.49-30.86,9.68-11.06,22.1-19.23,34.48-27.1,27.89-17.75,57.12-35.09,89.68-40.83,60.18-10.52,125.31,25.4,148.54,81.92,12.66,30.88,13.53,65.33,23.44,97.21,11.05,35.54,33.51,69.66,29.05,106.6-2.12,17.37-10.25,33.56-20.72,47.57-21.86,29.06-53.35,49.38-88.83,57.35-25.81,5.69-52.56,4.54-78.94,3.36-33.19-1.49-74.33,3.82-106.09-7.34-35.62-12.5-61.96-46-52.83-85.13Z" style="fill: rgb(255, 122, 0);"/><g id="character_fitness-1-94"><path class="cls-14_fitness-1-94" d="M231.47,161.39c-1.11.07-2.23,0-3.32-.21-6.17-.85-19.88-9.47-30.38-18.41-8.98-7.66-22.41-10.67-22.41-10.67l2.48-9.28s10.94,5.4,28.3,12.66c16.38,6.9,25.51,13.06,33.03,17.75,2.31,2.41-5.19,8.13-7.7,8.16Z"/><path class="cls-14_fitness-1-94" d="M232.14,161.49c-3.72.74-6.7-10.37-.85-12.53,15.27-3.93,75.43-24.72,82.86-10.19,0,0,8.42,10.79-7.78,15.48-11.47,3.33-36.28-.86-44.69.74-5.85,1.14-24.67,4.88-29.55,6.49Z"/><path class="cls-14_fitness-1-94" d="M188.73,128.02s-5.51-3.53-7.75-6.26c-1.8-2.19-3.04-2.65-6.78-5.78-4.06-3.4-3.98-3.95-4.98-5.41s-4.42-.53-1.63,3.48c2.79,4.01,3.72,4.52,3.72,4.52,0,0-6.25-3.63-9.57-5.5-3.32-1.88-5.92-3.81-6.6-2.06-.36.89.46,2.11,4.78,4.81,4.32,2.7,9.16,5.81,9.16,5.81,0,0-16.64-9.93-17.74-8.01-.7,1.23.27,2.47,5.61,5.38,5.34,2.9,10.57,5.44,10.57,5.44l-16.1-6.9c-1.49-.65-3.81,1.49,1.98,3.96,5.79,2.47,13.41,5.67,13.41,5.67,0,0-13.3-5.01-14.15-3.42-1.07,2.05,6.2,3.72,13.9,6.37,7.7,2.64,7.76,1.92,10.05,1.95,2.29.03,8.53,3.28,8.53,3.28l3.59-7.34Z"/><path class="cls-18_fitness-1-94" d="M266.73,295.68c.81.74,2.73,1.76,3.32,2.68,5.42,8.47,9.97,23.88,9.23,36.41-.5,10.94-.03,21.91,1.39,32.77l-7.95,5.48s-3.72-12.47-8.61-33.36c-5.64-24.17-12.73-38.96-13.41-48.33.66-3.53,14.26,2.27,16.02,4.35Z"/><path class="cls-18_fitness-1-94" d="M279.87,360.26c-.8-8.47-.99-16.99-.58-25.49.74-12.53-3.81-27.94-9.23-36.41-.6-.92-2.51-1.95-3.32-2.68-1.76-2.08-15.36-7.88-16.03-4.38.69,9.38,7.78,24.17,13.41,48.33,2.05,8.79,3.9,16.09,5.35,21.6l10.41-.98Z"/><path class="cls-15_fitness-1-94" d="M270.7,373.5l-.82-5.66s7.73.25,11.49-2.47l1.33,4.13s-1.75,6.37-12,4Z"/><path class="cls-13_fitness-1-94" d="M270.73,296.18c-2.58,3.1-20.53,6.99-21.41-4.41,1.21-6.93,5.96-11.47,8.65-15.97,13.45-22.39,22.34-45.83,43.04-65.66,0,0,37.11,14.79,23,25.81-18.16,14.15-34.9,37.77-44.61,47.58-6.38,6.44-4.07,3.67-8.67,12.64Z"/><path class="cls-1_fitness-1-94" d="M270.73,296.18c-2.58,3.1-20.53,6.99-21.41-4.41,1.21-6.93,5.96-11.47,8.65-15.97,13.45-22.39,22.34-45.83,43.04-65.66,0,0,37.11,14.79,23,25.81-18.16,14.15-34.9,37.77-44.61,47.58-6.38,6.44-4.07,3.67-8.67,12.64Z"/><path class="cls-9_fitness-1-94" d="M185.91,201.78c2.08.57,4.23.88,6.39.91,1.65-.03,2.95-1.39,2.92-3.03-.03-1.65-1.39-2.95-3.03-2.92-.96,0-23.09-.13-24.84-31.35l.85-60.49c.02-1.65-1.29-3-2.94-3.02-1.65-.02-3,1.29-3.02,2.94h0l-.86,60.59c0,.07,0,.13,0,.2,1.05,19.25,9.32,28.3,16.05,32.56,2.63,1.64,5.49,2.86,8.49,3.63Z"/><path class="cls-13_fitness-1-94" d="M163.67,136.79c.35.09.71.14,1.06.15,2.47.05,4.51-1.91,4.56-4.38,0-.02,0-.04,0-.05l.39-27.62c.03-2.48-1.95-4.52-4.43-4.55-2.48-.03-4.52,1.95-4.55,4.43l-.39,27.63c-.03,2.07,1.36,3.89,3.36,4.4Z"/><polygon class="cls-11_fitness-1-94" points="284.24 353.5 295.22 355.1 311.11 257.77 300.13 256.17 284.24 353.5"/><polygon class="cls-11_fitness-1-94" points="198.84 336.42 218.35 343.85 199.96 194.57 183.72 182.92 198.84 336.42"/><polygon class="cls-4_fitness-1-94" points="198.84 336.42 218.35 343.85 199.96 194.57 183.72 182.92 198.84 336.42"/><path class="cls-13_fitness-1-94" d="M318.43,404.89l-2.8-5.12c1.81-1.77,3.4-3.75,4.74-5.9-.81,1.4-3.98,7.28-1.94,11.02Z"/><path class="cls-13_fitness-1-94" d="M318.46,404.95l5.9,10.84-66.37-.39v-.13l-89.79.67,7.91-14.52c.05-.12.12-.25.19-.38,2.92-5.34-2.03-13.9-2.79-15.15l-.1-.15c-12.24-20.25-5.74-46.59,14.52-58.83,9.47-5.72,20.79-7.56,31.58-5.12h0l6.92,2.23,67.12,21.47c17.5.07,31.63,14.31,31.56,31.8-.02,5.73-1.6,11.35-4.56,16.25l-.19.31c-1.34,2.15-2.94,4.13-4.74,5.9l2.8,5.12.04.07Z"/><path class="cls-5_fitness-1-94" d="M318.46,404.95l5.9,10.84-66.37-.39v-.13l-89.79.67,7.91-14.52c.05-.12.12-.25.19-.38,2.92-5.34-2.03-13.9-2.79-15.15l-.1-.15c-12.24-20.25-5.74-46.59,14.52-58.83,9.47-5.72,20.79-7.56,31.58-5.12h0l6.92,2.23,67.12,21.47c17.5.07,31.63,14.31,31.56,31.8-.02,5.73-1.6,11.35-4.56,16.25l-.19.31c-1.34,2.15-2.94,4.13-4.74,5.9l2.8,5.12.04.07Z"/><path class="cls-13_fitness-1-94" d="M226.46,323.98l-6.92-2.23c2.37.54,4.68,1.29,6.92,2.23Z"/><path class="cls-13_fitness-1-94" d="M167.87,422.17c0,1.7,1.39,3.08,3.09,3.08h150.67c1.7,0,3.09-1.37,3.09-3.08h0v-4.92c0-1.71-1.38-3.09-3.09-3.09h-150.64c-1.71,0-3.09,1.39-3.09,3.09l-.03,4.92Z"/><path class="cls-13_fitness-1-94" d="M277.31,243.59s15.97-1.28,38.92-3.42c22.95-2.14,26.15,21.77,17.3,28.6-8.85,6.83-13.54,2.56-22.07-2.98-8.53-5.54-18.37-6.43-29.05-9.62-10.68-3.19-12.79-9.16-5.1-12.58Z"/><path class="cls-13_fitness-1-94" d="M278.42,374.45c-5.72-10.37-18.77-14.14-29.14-8.42-10.37,5.72-14.14,18.77-8.42,29.14,5.72,10.37,18.77,14.14,29.14,8.42,10.37-5.72,14.14-18.77,8.42-29.14,0,0,0,0,0,0Z"/><path class="cls-3_fitness-1-94" d="M278.42,374.45c-5.72-10.37-18.77-14.14-29.14-8.42-10.37,5.72-14.14,18.77-8.42,29.14,5.72,10.37,18.77,14.14,29.14,8.42,10.37-5.72,14.14-18.77,8.42-29.14,0,0,0,0,0,0Z"/><path class="cls-16_fitness-1-94" d="M262.76,383.09c-.95-1.72-3.11-2.35-4.83-1.41-1.72.95-2.35,3.11-1.41,4.83.95,1.72,3.11,2.35,4.83,1.41,0,0,0,0,0,0,1.72-.93,2.36-3.09,1.42-4.81,0,0,0-.02-.01-.03Z"/><path class="cls-16_fitness-1-94" d="M260.72,385.57c.4-1.06.37-2.24-.08-3.28-.7-1.68-2.33-3.02-4.86-4-5.37-2.06-28.23-10.68-28.47-10.76l-1.1,2.93c.23.09,23.09,8.7,28.44,10.76,1.65.63,2.76,1.44,3.1,2.28.11.26.15.54.11.82l2.87,1.25Z"/><path class="cls-16_fitness-1-94" d="M251.5,363.06c-.42-2.05-2.41-3.39-4.47-2.98l-39.04,7.31c-2.05.42-3.39,2.41-2.98,4.47h0c.42,2.05,2.41,3.39,4.47,2.98l39.04-7.3c2.05-.42,3.38-2.41,2.98-4.47h0Z"/><path class="cls-7_fitness-1-94" d="M251.5,363.06c-.42-2.05-2.41-3.39-4.47-2.98l-39.04,7.31c-2.05.42-3.39,2.41-2.98,4.47h0c.42,2.05,2.41,3.39,4.47,2.98l39.04-7.3c2.05-.42,3.38-2.41,2.98-4.47h0Z"/><path class="cls-11_fitness-1-94" d="M183.64,202.23c1.92.99,3.95,1.74,6.05,2.23,1.62.33,3.2-.72,3.53-2.34s-.72-3.2-2.34-3.53h0c-.95-.2-22.51-5.11-17.5-35.97l13.86-58.86c.38-1.61-.62-3.22-2.23-3.6-1.61-.38-3.22.62-3.6,2.23l-13.88,58.98c0,.07-.04.13-.04.19-3.13,19.04,2.98,29.69,8.65,35.26,2.21,2.17,4.74,3.99,7.51,5.39Z"/><path class="cls-13_fitness-1-94" d="M175.96,133.97c.32.16.66.29,1.01.37,2.4.57,4.81-.91,5.39-3.31,0,0,0-.02,0-.03l6.36-26.9c.56-2.42-.95-4.83-3.37-5.39-2.42-.56-4.83.95-5.39,3.37l-6.33,26.89c-.46,2,.5,4.06,2.32,4.99Z"/><path class="cls-10_fitness-1-94" d="M209.75,212.57l-20.91-13.66s-13.81-8.29-13.72-22.44c.04-6.4,2.68-14.15,15.85-3.9,13.17,10.26,50,62.39,18.78,39.99Z"/><path class="cls-17_fitness-1-94" d="M233.97,272.01c.74.8,2.57,2,3.08,2.98,4.66,8.94,7.86,24.67,6.03,37.08-1.46,10.86-1.96,21.82-1.49,32.77l-8.4,4.77s-2.64-12.75-5.66-33.99c-3.51-24.58-9.28-39.92-9.15-49.32,1-3.47,14.04,3.5,15.6,5.71Z"/><path class="cls-18_fitness-1-94" d="M235.69,276.36c-3.72,1.49-21.38-3.55-16.79-14.01,4.34-5.53,10.67-7.29,15.18-9.98,22.43-13.41,41.35-29.83,68.95-37.54,0,0,25.72,30.53,8.08,33.61-22.71,3.92-48.61,16.81-61.81,20.85-8.65,2.65-5.31,1.3-13.61,7.06Z"/><path class="cls-18_fitness-1-94" d="M241.43,337.49c-.05-8.51.51-17.01,1.67-25.44,1.83-12.42-1.36-28.17-6.03-37.08-.51-.97-2.32-2.16-3.08-2.98-1.56-2.23-14.6-9.18-15.59-5.76-.13,9.4,5.65,24.76,9.15,49.32,1.27,8.94,2.47,16.38,3.44,21.98l10.43-.04Z"/><path class="cls-13_fitness-1-94" d="M333.84,219.02c.08,1.83-.18,3.66-.74,5.4-.62,1.59-11.34,20.9-12.97,21.37-.2.06-.39.11-.6.16-1.51,1.7-3.47,2.95-5.65,3.6-3.86,1.33-8.1,1.79-12.07,3.14l-16.35,5.59-32.69,11.17c-5.96,2.05-12.53,4.79-19.01,5.08-2.44.14-4.88-.16-7.21-.86-5.04-1.56-12.33-6.28-10.22-12.62,2.12-6.34,11.92-10.51,16.97-13.6l47.09-28.67c1.63-1,3.31-2.01,5.05-2.98.01-.42.05-.83.12-1.24.03-.81.31-1.59.79-2.23.71-.74,1.86-.86,2.9-.93,11.6-.79,19.82-5.79,29.49-11.47,11.28-6.66,15.22,11.42,15.1,19.1Z"/><path class="cls-8_fitness-1-94" d="M333.84,219.02c.08,1.83-.18,3.66-.74,5.4-.62,1.59-11.34,20.9-12.97,21.37-.2.06-.39.11-.6.16-1.51,1.7-3.47,2.95-5.65,3.6-3.86,1.33-8.1,1.79-12.07,3.14l-16.35,5.59-32.69,11.17c-5.96,2.05-12.53,4.79-19.01,5.08-2.44.14-4.88-.16-7.21-.86-5.04-1.56-12.33-6.28-10.22-12.62,2.12-6.34,11.92-10.51,16.97-13.6l47.09-28.67c1.63-1,3.31-2.01,5.05-2.98.01-.42.05-.83.12-1.24.03-.81.31-1.59.79-2.23.71-.74,1.86-.86,2.9-.93,11.6-.79,19.82-5.79,29.49-11.47,11.28-6.66,15.22,11.42,15.1,19.1Z"/><path class="cls-15_fitness-1-94" d="M231.13,349.88l-.32-5.7s7.68.92,11.66-1.49l.96,4.24s-2.3,6.21-12.3,2.96Z"/><path class="cls-12_fitness-1-94" d="M221.62,356.59c-1.26.7-2.47,1.5-3.62,2.37-1.08.77-1.82,1.92-2.1,3.21-.14,1.33.68,2.58,1.96,2.98.97.26,1.98.33,2.98.2,9.06-.63,17.97-2.64,26.42-5.96.5-.16.96-.41,1.36-.74.34-.38.54-.86.56-1.36.45-3.72-1.99-7.09-4.33-10.23-.2-.31-.48-.57-.81-.74-.89-.39-2,.11-2.9.55-2.2,1.04-4.55,1.73-6.97,2.04-1.36.19-3.17-.11-4.47.37-1.49.58-2.16,2.46-3.13,3.48-1.48,1.48-3.14,2.77-4.95,3.84Z"/><path class="cls-15_fitness-1-94" d="M224.86,361.15c-2.87.27-5.74.51-8.59.89-.26.02-.52.09-.74.22-.17.13-.3.31-.38.51-.33.57-.5,1.21-.51,1.86,0,.26.13.51.34.68.39.21.83.29,1.27.24,9.47-.07,18.89-1.39,28.01-3.92,1.37-.35,2.71-.85,3.98-1.49.53-.23.98-.62,1.29-1.11.34-.69.15-1.62.24-2.35-1.57.35-3.11.79-4.63,1.3-1.58.4-3.19.76-4.8,1.07-3.24.63-6.52,1.1-9.82,1.49-1.9.23-3.79.42-5.64.6Z"/><path class="cls-13_fitness-1-94" d="M264.42,78.74c2.44-6.21,10.35-7.69,16.16-7.99,5.59-.29,10.82-.33,15.55,2.86,4.65,3.12,8.31,7.5,10.58,12.62,1.67,3.78,2.58,8.01,5.21,11.17,3.25,3.97,8.77,5.88,11.25,10.37,3.6,6.5-.86,14.9,1.39,21.96.63,1.95,1.75,3.72,2.03,5.79.52,3.72-1.79,7-3.98,9.76-.58.74-6.14,8.07-6.17,8.04-5.09-4.16-10.43-8.04-15.03-12.71-4.6-4.67-8.56-10.2-10.11-16.61-.86-3.57-.96-7.28-1.67-10.9-1.23-5.93-4.08-11.41-8.24-15.81-4.42-4.72-9.43-6.96-15.23-9.34-2.98-1.19-2.76-6.65-1.76-9.21Z"/><path class="cls-18_fitness-1-94" d="M280.91,132.28c1.07-2.02,1.92-4.16,2.52-6.37.53-2.59.63-5.25.31-7.87-.25-1.79-.33-3.59-.22-5.39.11-1.82.94-3.52,2.29-4.74,2.36-1.9,4.33-7.63,6.7-5.72,2.37,1.91,5.38,11.17,6.65,13.92l2.72,5.88c.31.55.48,1.17.5,1.79-.15.86-.58,1.65-1.22,2.23l-5.27,6c-2.53,2.88-5.12,5.81-8.4,7.79-2.7,1.63-7.92,3.47-10.83,1.4,1.07-3.05,2.82-6,4.25-8.93Z"/><path class="cls-18_fitness-1-94" d="M287.94,211.39c.06,1,.4,1.97.98,2.79.81.94,2.16,1.18,3.4,1.3,13.2,1.16,26.13-4.16,34.7-14.26-3.23-3.39-8.19-4.83-11.07-8.54-6.04-7.86,1.01-20.02-3.33-28.93-1.22-2.49-30.7,7.45-32.73,11.6-2.12,4.33,2.41,11.92,3.64,16.13,1.88,6.54,3.36,13.2,4.42,19.92Z"/><path class="cls-19_fitness-1-94 targetColor" d="M316.08,159.87c-.16,2.62-.45,5.46-2.28,7.34-.76.74-1.65,1.34-2.61,1.79l-.74.36-.63.31-.13.07-5.31,2.58c-1.55.74-3.11,1.49-4.68,2.23-3.8,1.85-7.87,3.1-12.05,3.69-5.91.66-12.43-1.06-16.04-5.77-2.83-3.72-3.47-8.73-2.75-13.35.72-4.62,2.66-8.94,4.58-13.18,1.04-2.29,2.23-4.52,3.44-6.7.62-1.16,1.31-2.28,2.07-3.35,1.1-1.49,2.79-1.85,4.47-2.55,2.49-.98,4.85-2.25,7.02-3.8,1.49-1.1,2.75-2.41,4.21-3.52,2.23-1.71,5.09-2.91,7.91-2.52,2.21.42,4.24,1.49,5.85,3.05.36.32.74.66,1.06.99,1.59,1.51,2.93,3.27,3.96,5.21.85,1.79,1.24,3.76,1.15,5.74v.48c0,2.07.94,4.35,1.24,6.45.57,4.79.66,9.64.27,14.45Z" style="fill: rgb(255, 122, 0);"/><path class="cls-6_fitness-1-94" d="M316.08,159.87c-.16,2.62-.45,5.46-2.28,7.34-.76.74-1.65,1.34-2.61,1.79-.45.21-.9.43-1.35.66l-.13.07c-3.38,1.76-6.76,4.01-10.14,5.27.05-.15.11-.31.16-.47.95-3.48,1.6-7.04,1.94-10.63.25-2.23.31-4.58-.56-6.66-.57-1.16-1.21-2.29-1.93-3.37-3.52-6.06-3.34-14.75-2.29-21.51.69-4.39,6.7-6.55,11.47-5.82.36.32.74.66,1.06.99,1.59,1.51,2.93,3.27,3.96,5.21.85,1.79,1.24,3.76,1.15,5.74v.48c0,2.07.94,4.35,1.24,6.45.59,4.79.69,9.63.31,14.44Z"/><path class="cls-18_fitness-1-94" d="M265.44,87.39c-.57.97-.85,2.08-.8,3.21-.06,4.27,1.74,8.59.6,12.71-.29.82-.52,1.66-.69,2.51-.16.87.1,1.76.7,2.4.43.3.89.55,1.38.74,2.7,1.43,3.19,4.99,4.47,7.75.41,1.36,1.77,2.2,3.17,1.96,3.72-.16,7.24-1.96,10.09-4.36,2.85-2.41,5.12-5.42,7.32-8.44.92-1.19,1.74-2.46,2.46-3.78.88-1.5,1.19-3.26.89-4.97-.42-1.67-2.02-3.12-3.72-2.9-.51.16-1.05.2-1.57.1-.29-.15-.55-.36-.74-.63-3.16-3.48-7.15-6.12-11.59-7.68-3.4-1.18-9.42-2.31-11.95,1.38Z"/><path class="cls-13_fitness-1-94" d="M266.35,87.87c1.64,3.92,5.5,6.49,9.51,7.92,5.58,1.99,12.21,2.02,17.01-1.44-4.47-3.51-6.56-9.38-11.01-12.91-1.6-1.18-3.33-2.18-5.15-2.98-1.76-.94-3.64-1.62-5.59-2.03-2.04-.34-2.78-.12-3.89,1.66-1.84,2.93-2.17,6.56-.89,9.78Z"/><path class="cls-18_fitness-1-94" d="M238.67,163.95c-1.12.02-2.23-.1-3.31-.36-6.12-1.15-19.41-10.43-29.46-19.84-8.61-8.07-21.87-11.72-21.87-11.72l2.91-9.15s10.68,5.91,27.67,14.02c16.05,7.66,24.87,14.26,32.15,19.31,2.19,2.49-5.59,7.83-8.08,7.75Z"/><path class="cls-18_fitness-1-94" d="M238.56,163.91c-3.25.64-5.02-10.43.18-12.47,13.41-3.65,66.89-31.35,72.24-16.79,0,0,4.95,11.73-9.27,16.13-10.08,3.11-29.98,5.7-37.33,7.17-5.11,1.03-21.51,4.47-25.82,5.96Z"/><path class="cls-18_fitness-1-94" d="M197.59,128.58s-5.33-3.79-7.45-6.62c-1.69-2.27-2.9-2.79-6.49-6.09-3.9-3.6-3.79-4.13-4.72-5.64-.93-1.5-4.39-.74-1.79,3.39,2.59,4.13,3.52,4.69,3.52,4.69,0,0-6.08-3.91-9.31-5.96-3.23-2.05-5.73-4.08-6.49-2.37-.39.86.36,2.12,4.56,5.02,4.19,2.9,8.89,6.26,8.89,6.26,0,0-16.15-10.72-17.34-8.86-.74,1.21.16,2.49,5.33,5.65,5.18,3.15,10.28,5.92,10.28,5.92l-15.77-7.65c-1.49-.74-3.88,1.33,1.79,4.04l13.1,6.3s-13.05-5.65-13.96-4.08c-1.17,2,6.02,4,13.58,7.02,7.57,3.02,7.66,2.3,9.95,2.44s8.36,3.68,8.36,3.68l3.96-7.13Z"/></g></svg>